<?xml version="1.0" encoding="iso-8859-1"?>
<!-- Generator: Adobe Illustrator 19.0.0, SVG Export Plug-In . SVG Version: 6.00 Build 0)  -->
<svg xmlns="http://www.w3.org/2000/svg" xmlns:xlink="http://www.w3.org/1999/xlink" version="1.1" id="Capa_1" x="0px" y="0px" viewBox="0 0 511.999 511.999" style="enable-background:new 0 0 511.999 511.999;" xml:space="preserve" width="512px" height="512px">
<g>
	<g>
		<path d="M388.72,101.279c-0.13-0.64-0.32-1.27-0.57-1.87c-0.25-0.6-0.56-1.19-0.92-1.73c-0.36-0.55-0.78-1.06-1.24-1.52    c-0.46-0.46-0.97-0.88-1.52-1.24c-0.54-0.36-1.12-0.67-1.73-0.92c-0.6-0.25-1.23-0.44-1.87-0.57c-1.29-0.26-2.62-0.26-3.91,0    c-0.63,0.13-1.26,0.32-1.87,0.57c-0.6,0.25-1.18,0.56-1.72,0.92c-0.55,0.36-1.06,0.78-1.52,1.24c-0.46,0.46-0.88,0.97-1.25,1.52    c-0.36,0.54-0.67,1.13-0.92,1.73c-0.25,0.6-0.44,1.23-0.57,1.87c-0.13,0.64-0.19,1.3-0.19,1.95c0,0.66,0.06,1.31,0.19,1.96    c0.13,0.64,0.32,1.259,0.57,1.87c0.25,0.6,0.56,1.18,0.92,1.72c0.37,0.55,0.79,1.06,1.25,1.52c0.461,0.46,0.97,0.88,1.52,1.25    c0.54,0.36,1.12,0.67,1.72,0.92c0.61,0.25,1.24,0.44,1.87,0.57c0.65,0.13,1.31,0.19,1.96,0.19c0.65,0,1.31-0.06,1.95-0.19    s1.27-0.32,1.87-0.57c0.61-0.25,1.19-0.56,1.73-0.92c0.55-0.37,1.06-0.79,1.52-1.25c0.46-0.46,0.88-0.97,1.24-1.52    c0.36-0.54,0.67-1.12,0.92-1.72c0.25-0.61,0.44-1.23,0.57-1.87c0.13-0.65,0.2-1.3,0.2-1.96    C388.92,102.579,388.85,101.919,388.72,101.279z" fill="#FFFFFF"/>
	</g>
</g>
<g>
	<g>
		<path d="M509.071,395.74l-25.998-25.998c-3.905-3.904-10.237-3.904-14.142,0l-8.868,8.868l-25.634-25.633l6.218-6.218    c10.608-0.56,20.722-5.018,28.298-12.593c16.852-16.852,16.852-44.273,0-61.125c-8.164-8.164-19.018-12.66-30.563-12.66    s-22.399,4.496-30.563,12.66c-4.981,4.982-8.576,10.988-10.635,17.477l-46.176-53.596l91.848-79.133    c1.896-1.633,3.11-3.919,3.404-6.403l13.98-118.372c0.359-3.041-0.695-6.079-2.86-8.244c-2.165-2.165-5.204-3.216-8.244-2.86    L330.764,35.89c-2.485,0.294-4.77,1.508-6.403,3.404l-71.811,83.349l-64.91-75.34c-1.633-1.896-3.918-3.11-6.403-3.404    L62.864,29.917c-3.04-0.355-6.079,0.695-8.244,2.86c-2.165,2.166-3.219,5.203-2.86,8.244l13.98,118.373    c0.293,2.485,1.508,4.77,3.404,6.403l83.927,72.308l-38.255,44.401c-2.059-6.489-5.654-12.495-10.635-17.477    c-16.853-16.852-44.273-16.852-61.126,0c-16.852,16.853-16.852,44.274,0,61.126c7.577,7.576,17.689,12.034,28.298,12.593    l6.218,6.218L51.938,370.6l-8.868-8.868c-1.875-1.875-4.419-2.929-7.071-2.929c-2.652,0-5.196,1.054-7.071,2.929L2.929,387.731    c-3.905,3.905-3.905,10.237,0,14.143l77.346,77.346c1.875,1.876,4.419,2.929,7.071,2.929s5.196-1.054,7.071-2.929l25.998-25.998    c3.905-3.905,3.905-10.237,0-14.143l-8.868-8.868l25.633-25.634l6.218,6.218c0.56,10.609,5.017,20.722,12.593,28.298    c8.427,8.427,19.494,12.64,30.563,12.639c11.067-0.001,22.138-4.214,30.563-12.639c8.164-8.164,12.66-19.018,12.66-30.563    c0-11.545-4.496-22.4-12.66-30.564h0.001c-4.982-4.982-10.988-8.576-17.477-10.635l51.71-44.552l61.008,52.562    c-6.489,2.059-12.496,5.653-17.477,10.634c-8.164,8.164-12.66,19.018-12.66,30.563s4.496,22.399,12.66,30.563    s19.018,12.659,30.563,12.66c11.544,0,22.399-4.497,30.563-12.66c7.576-7.577,12.034-17.69,12.593-28.298l6.218-6.218    l25.633,25.634l-8.868,8.868c-3.905,3.905-3.905,10.237,0,14.143l25.998,25.998c1.953,1.953,4.512,2.929,7.071,2.929    s5.119-0.976,7.071-2.929l77.346-77.346C512.976,405.978,512.976,399.646,509.071,395.74z M389.657,312.421l-20.626,20.626    l-59.979-59.979l26.803-23.093L389.657,312.421z M85.145,153.185L73.109,51.267l101.918,12.037l64.323,74.659l-30.27,35.133    l-39.695-39.695c-3.905-3.905-10.237-3.905-14.143,0c-3.905,3.905-3.905,10.237,0,14.143l40.747,40.747l-29.865,34.664    L85.145,153.185z M90.334,423.141c-3.905,3.905-3.905,10.237,0,14.142l8.868,8.868l-11.856,11.856l-63.204-63.205l11.856-11.856    l8.868,8.868c1.875,1.876,4.419,2.929,7.071,2.929c2.652,0,5.196-1.054,7.071-2.929l32.704-32.705l31.326,31.326L90.334,423.141z     M202.976,392.11c4.386,4.386,6.802,10.218,6.802,16.421s-2.415,12.034-6.802,16.42c-4.386,4.386-10.217,6.802-16.42,6.802    s-12.035-2.415-16.42-6.802c-4.669-4.668-7.132-11.135-6.759-17.741c0.161-2.844-0.899-5.621-2.913-7.635l-77.89-77.89    c-1.881-1.88-4.427-2.929-7.071-2.929c-0.188,0-0.376,0.005-0.564,0.016c-6.61,0.366-13.073-2.09-17.741-6.759    c-4.386-4.386-6.802-10.218-6.802-16.421s2.415-12.035,6.802-16.42c9.054-9.055,23.787-9.054,32.841-0.001    c5.544,5.545,7.903,13.453,6.311,21.154c-0.682,3.297,0.341,6.716,2.721,9.097l2.566,2.566l68.524,68.523l2.566,2.566    c2.381,2.38,5.801,3.404,9.096,2.722C189.525,384.207,197.432,386.567,202.976,392.11z M177.737,359.805l-20.626-20.626    l199.646-199.646c3.905-3.905,3.905-10.237,0-14.143c-3.905-3.904-10.238-3.904-14.142,0L142.969,325.037l-20.626-20.626    l214.63-249.117l101.918-12.037l-12.037,101.918L177.737,359.805z M266.672,309.582l27.186-23.423l61.031,61.031l-20.626,20.626    L266.672,309.582z M351.537,407.585c-2.014,2.014-3.073,4.792-2.913,7.635c0.373,6.606-2.09,13.073-6.759,17.742    c-4.386,4.386-10.217,6.802-16.42,6.802s-12.035-2.416-16.421-6.802s-6.802-10.218-6.802-16.42c0-6.203,2.415-12.035,6.802-16.421    c4.404-4.404,10.299-6.798,16.398-6.798c1.579,0,3.171,0.161,4.755,0.488c3.297,0.682,6.716-0.341,9.097-2.722l73.655-73.655    c2.38-2.381,3.403-5.8,2.721-9.097c-1.593-7.702,0.766-15.61,6.31-21.154c4.386-4.387,10.218-6.802,16.421-6.802    s12.034,2.416,16.42,6.802c4.386,4.386,6.802,10.217,6.802,16.42s-2.415,12.035-6.802,16.42    c-4.668,4.668-11.127,7.13-17.741,6.759c-2.837-0.158-5.621,0.898-7.635,2.913L351.537,407.585z M424.654,466.016l-11.856-11.856    l8.868-8.868c3.905-3.905,3.905-10.237,0-14.142l-32.705-32.705l31.326-31.326l32.705,32.705c3.905,3.905,10.237,3.904,14.142,0    l8.868-8.868l11.856,11.856L424.654,466.016z" fill="#FFFFFF"/>
	</g>
</g>
<g>
	<g>
		<path d="M142.89,109.289c-0.13-0.64-0.32-1.27-0.57-1.87c-0.25-0.61-0.56-1.19-0.92-1.73c-0.37-0.55-0.79-1.06-1.25-1.52    c-0.46-0.46-0.97-0.88-1.52-1.24c-0.54-0.36-1.12-0.67-1.72-0.92c-0.61-0.25-1.23-0.44-1.87-0.57c-1.29-0.26-2.62-0.26-3.91,0    c-0.64,0.13-1.27,0.32-1.87,0.57c-0.61,0.25-1.19,0.56-1.73,0.92c-0.55,0.36-1.06,0.78-1.52,1.24c-0.46,0.46-0.88,0.97-1.24,1.52    c-0.36,0.54-0.67,1.12-0.92,1.73c-0.25,0.6-0.44,1.23-0.57,1.87c-0.13,0.64-0.2,1.3-0.2,1.95c0,0.65,0.07,1.31,0.2,1.96    c0.13,0.63,0.32,1.26,0.57,1.87c0.25,0.6,0.56,1.18,0.92,1.72c0.36,0.55,0.78,1.06,1.24,1.52s0.97,0.88,1.52,1.25    c0.54,0.36,1.12,0.67,1.73,0.92c0.6,0.25,1.23,0.44,1.87,0.57s1.3,0.19,1.95,0.19c0.66,0,1.309-0.06,1.96-0.19    c0.64-0.13,1.26-0.32,1.87-0.57c0.6-0.25,1.18-0.56,1.72-0.92c0.55-0.37,1.06-0.79,1.52-1.25c0.46-0.461,0.88-0.97,1.25-1.52    c0.36-0.54,0.67-1.12,0.92-1.72c0.25-0.61,0.44-1.24,0.57-1.87c0.13-0.65,0.191-1.31,0.191-1.96S143.021,109.929,142.89,109.289z" fill="#FFFFFF"/>
	</g>
</g>
<g>
</g>
<g>
</g>
<g>
</g>
<g>
</g>
<g>
</g>
<g>
</g>
<g>
</g>
<g>
</g>
<g>
</g>
<g>
</g>
<g>
</g>
<g>
</g>
<g>
</g>
<g>
</g>
<g>
</g>
</svg>
