<?xml version="1.0" encoding="iso-8859-1"?>
<!-- Generator: Adobe Illustrator 19.0.0, SVG Export Plug-In . SVG Version: 6.00 Build 0)  -->
<svg xmlns="http://www.w3.org/2000/svg" xmlns:xlink="http://www.w3.org/1999/xlink" version="1.1" id="Capa_1" x="0px" y="0px" viewBox="0 0 512.001 512.001" style="enable-background:new 0 0 512.001 512.001;" xml:space="preserve" width="512px" height="512px">
<g>
	<g>
		<path d="M462.843,140.083c3.437-9.483,5.173-19.44,5.173-29.714c0-48.254-39.258-87.512-87.512-87.512    c-19.489,0-38.059,6.358-53.28,18.081c-23.445-24.55-55.7-38.445-89.981-38.445c-25.659,0-50.3,7.746-71.258,22.399    c-17.943,12.545-32.105,29.338-41.352,48.934c-7.685-1.838-15.58-2.766-23.57-2.766C45.336,71.059,0,116.395,0,172.121    c0,24.48,8.696,47.723,24.605,66.086c-6.478,22.393-7.803,42.595-3.936,60.127c3.932,17.824,13.005,32.462,26.967,43.507    c17.573,13.901,42.47,21.196,70.09,20.55c21.469-0.504,43.031-5.668,62.027-14.714c0.666,4.39,1.027,8.744,0.971,13.056    l-1.808,138.646c-0.035,2.674,1.003,5.251,2.882,7.155c1.879,1.903,4.442,2.975,7.117,2.975h133.616    c3.168,0,6.148-1.501,8.035-4.047c1.887-2.546,2.455-5.834,1.532-8.865c-13.034-42.827-22.314-96.853-8.15-143.175    c15.692,16.009,34.66,23.318,59.589,23.318c17.825,0,37.2-7.303,53.158-20.036c15.599-12.446,26.383-28.674,30.721-46.084    c28-18.849,44.585-49.866,44.585-83.817C512.002,191.269,492.987,158.198,462.843,140.083z M297.52,388.669    c-2.158,30.353,1.785,64.221,11.725,100.839h-68.428v-55.951c0-5.523-4.477-10-10-10s-10,4.477-10,10v55.953h-21.77l1.675-128.516    c0.293-22.408-7.719-43.903-16.67-65.782c-3.157-7.717-12.105-18.117-25.394-33.103c-6.132-6.915-15.398-17.364-16.752-20.367    c-2.956-7.412-2.432-12.361-1.086-14.348c0.278-0.41,1.018-1.501,3.649-1.501c2.334,0,10.899,1.061,23.093,14.723    c23.463,26.289,38.717,37.505,51.008,37.504c0.001,0,0.003,0,0.004,0c6.849-0.001,12.649-3.412,16.33-9.604    c2.531-4.258,4.119-9.924,4.854-17.321l6.188-62.271c1.06-10.671,5.983-15.471,9.141-15.471c1.58,0,2.915,1.121,3.757,2.061    c3.993,4.456,5.632,13.882,4.384,25.214l-8.822,80.13c-1.228,11.154,0.533,19.207,5.383,24.62    c3.502,3.908,8.472,6.061,13.993,6.061c7.224,0,14.078-3.563,17.39-6.874l43.812-43.814c8.675-8.674,14.651-9.611,16.817-9.611    c2.278,0,3.605,0.868,4.436,2.903c2.503,6.128-1.023,18.82-14.679,32.206C315.336,312.054,300.52,346.479,297.52,388.669z     M453.295,295.93c-2.412,1.481-4.082,3.915-4.599,6.699c-5.91,31.889-39.083,54.112-65.159,54.112    c-22.783,0-38.004-7.081-51.27-24.174c5.789-11.505,13.43-22.267,23.292-31.935c21.728-21.3,24.161-41.886,19.193-54.05    c-3.923-9.606-12.504-15.342-22.952-15.342c-7.067,0-18.174,2.684-30.96,15.469l-43.64,43.644    c-0.556,0.391-1.747,0.914-2.73,1.109c-0.317-1.119-0.712-3.609-0.183-8.415l8.822-80.13c1.915-17.396-1.412-31.867-9.369-40.747    c-5.035-5.62-11.659-8.714-18.653-8.714c-12.386,0-26.757,10.482-29.043,33.494l-6.188,62.271    c-0.529,5.329-1.475,7.802-1.995,8.807c-2.579-0.577-11.99-4.521-35.379-30.726c-12.32-13.804-25.82-21.406-38.014-21.406    c-8.412,0-15.775,3.747-20.203,10.279c-5.719,8.438-6.052,20.148-0.938,32.976c2.254,5.654,8.869,13.265,20.367,26.23    c8.332,9.395,19.743,22.262,21.847,27.406c3.443,8.416,6.727,16.742,9.359,24.962c-17.238,8.903-37.829,14.185-57.644,14.65    c-22.962,0.55-43.29-5.228-57.212-16.241c-22.343-17.674-27.421-47.906-14.687-87.428c1.136-3.526,0.229-7.392-2.356-10.046    C28.169,213.459,20,193.372,20,172.121c0-44.698,36.364-81.063,81.062-81.063c8.93,0,17.702,1.44,26.071,4.282    c5.081,1.725,10.618-0.868,12.547-5.876c15.425-40.059,54.633-66.973,97.563-66.973c31.681,0,61.301,14.139,81.264,38.791    c1.772,2.188,4.385,3.528,7.196,3.69c2.81,0.161,5.56-0.869,7.572-2.839c12.694-12.431,29.467-19.277,47.23-19.277    c37.226,0,67.512,30.286,67.512,67.512c0,10.45-2.324,20.468-6.908,29.776c-1.182,2.4-1.353,5.171-0.476,7.698    c0.877,2.526,2.729,4.596,5.143,5.747c28.082,13.389,46.227,42.127,46.227,73.214C492.002,255.202,477.532,281.044,453.295,295.93    z" fill="#FFFFFF"/>
	</g>
</g>
<g>
	<g>
		<path d="M230.817,393.51c-5.523,0-10,4.477-10,10v0.324c0,5.523,4.477,10,10,10s10-4.477,10-10v-0.324    C240.817,397.987,236.34,393.51,230.817,393.51z" fill="#FFFFFF"/>
	</g>
</g>
<g>
	<g>
		<path d="M420.055,182.777c-8.63-32.206-35.566-55.836-68.623-60.199c-5.472-0.723-10.5,3.131-11.222,8.606    c-0.723,5.475,3.13,10.499,8.606,11.222c25.011,3.301,45.392,21.179,51.921,45.548c1.406,5.247,2.119,10.661,2.119,16.092    c0,5.523,4.477,10,10,10s10-4.477,10-10C422.856,196.868,421.914,189.712,420.055,182.777z" fill="#FFFFFF"/>
	</g>
</g>
<g>
	<g>
		<path d="M331.874,131.722c-1.412-5.339-6.882-8.524-12.223-7.113l-0.27,0.072c-5.33,1.447-8.478,6.94-7.031,12.271    c1.209,4.453,5.242,7.383,9.645,7.383c0.867,0,1.749-0.114,2.625-0.352l0.141-0.038    C330.1,142.534,333.285,137.061,331.874,131.722z" fill="#FFFFFF"/>
	</g>
</g>
<g>
	<g>
		<path d="M184.589,120.407c-5.907-1.583-12.002-2.385-18.116-2.385c-31.624,0-59.429,21.335-67.615,51.882    c-1.43,5.335,1.736,10.818,7.071,12.248c0.867,0.232,1.738,0.343,2.595,0.343c4.415,0,8.455-2.946,9.653-7.414    c5.847-21.819,25.707-37.059,48.297-37.059c4.367,0,8.721,0.573,12.94,1.704c5.335,1.428,10.818-1.736,12.247-7.071    C193.089,127.32,189.924,121.836,184.589,120.407z" fill="#FFFFFF"/>
	</g>
</g>
<g>
</g>
<g>
</g>
<g>
</g>
<g>
</g>
<g>
</g>
<g>
</g>
<g>
</g>
<g>
</g>
<g>
</g>
<g>
</g>
<g>
</g>
<g>
</g>
<g>
</g>
<g>
</g>
<g>
</g>
</svg>
